<?xml version="1.0" ?><!DOCTYPE svg  PUBLIC '-//W3C//DTD SVG 1.1//EN'  'http://www.w3.org/Graphics/SVG/1.1/DTD/svg11.dtd'><svg enable-background="new 0 0 100 100" height="100px" version="1.1" viewBox="0 0 100 100" width="100px" xml:space="preserve" xmlns="http://www.w3.org/2000/svg" xmlns:xlink="http://www.w3.org/1999/xlink"><g id="color_x5F_fill"><path d="M93.404,41.873c-0.012-5.826,0.42-11.764,0.18-17.62c-0.117-2.899-0.18-17.445-0.18-17.445   c-2.975,0-7.061-0.047-9.986,0.181C75.744,7.586,6.547,6.95,6.547,6.95c-0.003,3.819,0,17.323,0,21.158   c0,8.002-0.122,15.69-0.182,23.633C6.263,65.488,6.547,79.464,6.547,92.938l1.589,0.081c3.631-0.428,6.285-0.019,9.717-0.081   c6.002-0.109,32.354,0.455,39.31,0.181c6.313-0.248,33.289,0.092,35.878,0.017c0,0,0.438-36.227,0.364-38.87   C93.287,50.083,93.412,46.01,93.404,41.873z M79.827,68.449c-2.254,1.411-11.416,1.831-13.635,0.219   c-1.216-0.884-2.327-1.99-3.385-3.042c-0.739-0.736-1.578-1.093-2.212-1.892c-0.52-0.654-0.874-1.425-1.421-2.069   c-0.921-1.083-2.339-2.004-3.462-0.681c-1.688,1.989,0.267,5.899-1.987,7.385c-0.755,0.499-1.518,0.643-2.462,0.572l-2.091,0.096   c-1.228,0.024-3.175,0.035-4.572-0.218c-1.558-0.281-2.846-1.132-4.255-1.758c-2.676-1.187-5.226-2.803-7.164-5.043   c-5.279-6.1-12.371-14.49-15.126-22.16c-0.565-1.576-2.062-4.694-0.644-6.048c1.929-1.401,11.399-1.797,12.877,0.371   c0.6,0.88,0.979,2.171,1.402,3.169c0.528,1.245,0.814,2.418,1.641,3.521c0.732,0.977,1.271,1.96,1.838,3.032   c0.634,1.202,1.234,2.356,2.006,3.464c0.524,0.753,1.91,2.25,2.785,2.362c2.138,0.273,2.005-4.922,1.847-6.19   c-0.152-1.222-0.191-2.519-0.151-3.758c0.034-1.057,0.13-2.547-0.496-3.411c-1.021-1.408-3.295-0.354-3.473-2.246   c0.377-0.538,0.296-1.014,2.805-1.84c1.975-0.65,3.251-0.629,4.554-0.525c2.655,0.213,5.472-0.506,8.033,0.355   c2.449,0.825,2.07,4.304,1.989,6.39c-0.11,2.848,0.007,5.625,0,8.515c-0.003,1.316-0.057,2.596,1.548,2.489   c1.504-0.101,1.657-1.365,2.375-2.41c0.999-1.456,1.915-2.931,2.931-4.382c1.371-1.96,1.785-4.163,3.073-6.171   c0.462-0.719,0.858-2.289,1.569-2.856c0.537-0.43,1.561-0.246,2.211-0.246h1.548c1.185,0.014,2.393,0.031,3.61,0.074   c1.754,0.061,3.718-0.32,5.457-0.075c7.502,1.059-9.431,17.107-8.549,19.97c0.609,1.978,4.471,4.192,5.865,5.813   C78.562,61.38,84.258,65.675,79.827,68.449z" fill="#4C75A3"/></g><g id="offset_x5F_print_x5F_outline"/></svg>